<?xml version="1.0" encoding="UTF-8"?>
<svg id="Capa_1" data-name="Capa 1" xmlns="http://www.w3.org/2000/svg" viewBox="0 0 2259 2011">
  <defs>
    <style>
      .cls-1 {
        fill: #7e0808;
      }

      .cls-2 {
        fill: #0b116c;
      }
    </style>
  </defs>
  <path class="cls-1" d="M2159.56,1622.06c-1.08.18-2.16.48-3.25.51-3.58.08-7.15.06-10.73.06-552.72,0-1105.43,0-1658.15,0H112.71c-.28,0-.55,0-.83,0-3.03,0-6.06-.14-9.08.04-3.05.18-6-.76-9.03-.6,0-6.43,0-12.86,0-19.29.54.11,1.1.36,1.62.29,3.29-.44,6.59-.34,9.89-.35,1.93,0,3.85,0,5.78,0,678.7,0,1357.41,0,2036.11,0,4.13,0,8.25.04,12.38.06v19.29Z"/>
  <path class="cls-2" d="M307.7,971.35c-.16,130.2-.32,260.39-.48,390.59-.04,29.18-.13,58.35-.19,87.53,0,2.48.05,4.95.1,7.43.01.54.18,1.08.26,1.62.14.94,1.29,2.05,2.23,2.14.82.08,1.64.21,2.46.22,2.75.04,5.5.04,8.26.04,166.8,0,333.61,0,500.41,0,3.03,0,6.06,0,9.08-.01,4.68,0,9.36-.16,14.02-.64,2.19-.23,4.39-.39,6.59-.51,6.63-.35,13.08-1.76,19.44-3.53,3.18-.89,6.25-2.11,9.2-3.61,4.73-2.41,8.76-5.66,12.05-9.84,2.05-2.6,3.86-5.35,5.48-8.24,2.42-4.33,4.43-8.85,6.27-13.45,3.06-7.68,5.48-15.57,7.56-23.56,2.22-8.51,4.53-17.01,6.19-25.66,1.39-7.29,2.87-14.57,4.25-21.87,1.44-7.57,2.83-15.14,4.22-22.72,1.39-7.58,2.76-15.15,4.14-22.73,1.32-7.31,2.64-14.62,3.97-21.92,1.38-7.58,2.78-15.15,4.16-22.73,1.48-8.12,2.95-16.24,4.4-24.36,1.35-7.58,2.67-15.17,4.01-22.75,1.24-7.04,2.47-14.09,3.72-21.13,2.12-11.92,4.25-23.83,6.37-35.74,1.21-6.77,2.34-13.55,3.63-20.31.38-1.98.16-3.8-.4-5.67-.79-2.63-1.52-5.29-2.29-7.93-2.56-8.72-4.42-17.6-6.24-26.49-1.7-8.36-3-16.79-4.34-25.21-.96-5.97-1.45-12.02-2.36-18-1.16-7.63-1.48-15.34-2.54-22.97-.26-1.91-.34-3.84-.49-5.76-.39-4.94-.78-9.88-1.16-14.81-.11-1.37-.23-2.74-.28-4.12-.61-15.95-1.3-31.9-.69-47.88.2-5.23.25-10.46.48-15.68.2-4.67.55-9.34.85-14.01.05-.82.17-1.64.21-2.47.47-9.07,1.02-18.13,1.91-27.18.51-5.2.69-10.43,1.37-15.62.43-3.26.76-6.56.5-9.87-.07-.96-1.07-2.02-2.12-2.13-.27-.03-.54-.12-.81-.14-7.13-.56-14.27-1.1-21.4-1.68-1.92-.16-3.83-.42-5.74-.65-2.19-.26-4.37-.52-6.55-.79-2.73-.34-5.45-.71-8.18-1.06-5.18-.67-10.36-1.42-15.53-2.16-5.72-.82-11.41-1.79-17.1-2.76-4.07-.69-8.14-1.37-12.2-2.08-11.38-2-22.71-4.18-34.05-6.4-13.76-2.7-27.49-5.57-41.22-8.43-7.82-1.63-15.47-3.86-23.11-6.13-22.41-6.65-44.61-13.94-66.8-21.29-19.83-6.57-39.61-13.32-59.42-19.97-1.56-.52-3.16-.92-4.74-1.39-.93-.27-2.26.7-2.37,1.69-.06.55-.2,1.09-.21,1.63-.04,2.2-.07,4.4-.07,6.61,0,10.46,0,20.92,0,31.38,0,88.63.01,177.26-.02,265.9,0,10.19.4,20.36.92,30.53.38,7.3,2.54,20.58,5.01,28.39,1.75,5.53,3.92,10.87,6.9,15.85,1.27,2.12,2.71,4.14,4.15,6.16,3.42,4.79,7.82,8.45,12.96,11.29,4.35,2.4,8.89,4.36,13.56,6,8.05,2.84,16.32,4.89,24.67,6.64,5.39,1.13,10.85,1.79,16.27,2.74,2.72.47,5.47.57,8.23.61,3.58.05,7.16.05,10.73.17,5.5.18,11,.45,16.5.68,6.05.26,12.1.51,18.15.78,1.38.06,2.58,1.28,2.67,2.64.24,3.3.32,6.59-.08,9.88-.12.97-1.19,1.98-2.25,2.05-.82.06-1.64.15-2.46.17-1.93.03-3.85.02-5.78.02-86.71,0-173.41,0-260.12-.01-2.74,0-5.5.24-8.23-.31-.55-.11-1.56-1.06-1.65-1.65-.04-.27-.14-.54-.17-.81-.3-3.02-.3-6.05-.01-9.06.18-1.96,1.09-2.84,3.25-2.95,1.65-.08,3.3-.12,4.95-.2,5.22-.25,10.45-.51,15.67-.78,2.75-.14,5.5-.41,8.25-.43,5.81-.03,11.53-.83,17.2-1.97,6.76-1.36,13.36-3.27,19.56-6.36,2.21-1.1,4.4-2.29,6.47-3.62,6.14-3.96,10.91-9.19,14.24-15.72,2.13-4.18,3.82-8.55,5.1-13.05,1.65-5.82,2.93-11.73,3.8-17.74,1.95-13.37,2.96-26.8,3.17-40.3.13-8.26.29-16.51.3-24.77.08-74.59.18-149.19.16-223.78-.04-189.65-.14-379.3-.22-568.95,0-11.56,0-23.12-.04-34.68-.01-4.68-.09-9.36-.19-14.04-.11-5.51-.49-10.99-1.13-16.47-.61-5.2-1.19-10.38-2.17-15.52-1.18-6.23-2.77-12.34-5.08-18.26-1.3-3.34-2.84-6.56-4.65-9.66-3.39-5.82-7.93-10.52-13.55-14.21-4.16-2.73-8.61-4.91-13.28-6.58-7.27-2.6-14.74-4.35-22.41-5.39-7.94-1.07-15.89-1.41-23.88-1.35-3.85.03-7.71.03-11.56.03-.55,0-1.09-.1-1.64-.13-.95-.07-2.1-1.15-2.21-2.1-.47-3.84-.41-7.68-.04-11.52.13-1.34,1.33-2.4,2.79-2.45.83-.03,1.65-.07,2.48-.07,1.93,0,3.85,0,5.78.02,36.06.29,72.12.16,108.17-.15,14.04-.12,28.07-.29,42.09-1.13,4.94-.3,9.9-.35,14.85-.48,6.61-.17,13.21-.35,19.78-1.12.82-.1,1.65-.18,2.47-.19,8.82-.16,17.55-1.36,26.32-2.17,1.37-.13,2.75-.25,4.09-.52,2.98-.58,5.99-.86,9.01-1.11,1.64-.14,3.27-.42,4.91-.63,2.46-.31,4.91-.62,7.37-.93,2.18-.28,4.37-.56,6.55-.84,1.91-.24,3.82-.49,5.73-.73,2.73-.34,5.46-.67,8.19-1.01,1.64-.2,3.27-.47,4.91-.6,3.02-.24,6.02-.57,9.01-1.11,1.89-.34,3.83-.44,5.74-.64,1.91-.21,3.85-.32,5.74-.65,2.99-.53,5.99-.82,9.01-1.08,2.19-.19,4.37-.54,6.55-.81,1.91-.24,3.82-.53,5.74-.68,3.02-.23,6.03-.53,9.02-1.04,1.9-.32,3.82-.5,5.74-.64,3.02-.22,6.03-.53,9.02-1.03,1.9-.32,3.83-.42,5.74-.63,3.01-.32,6.02-.66,9.02-.98,2.19-.23,4.38-.46,6.57-.69,3.01-.31,6.02-.63,9.03-.95.27-.03.54-.1.82-.13,7.67-.75,15.33-1.49,23-2.23.82-.08,1.65-.07,2.47-.15,4.65-.47,9.3-1.04,13.96-1.4,4.39-.33,8.8-.46,13.16-1.13.54-.08,1.09-.17,1.64-.19,10.73-.38,21.39-1.83,32.12-2.15,5.23-.16,10.45-.43,15.67-.74,12.1-.73,24.2-.8,36.31-.03,6.59.42,13.2.6,19.8.83,4.68.16,9.35.31,14.01.86.82.1,1.64.2,2.47.23,9.91.35,19.76,1.45,29.63,2.25,2.19.18,4.38.44,6.57.69,1.09.13,2.17.42,3.27.47,6.33.32,12.56,1.57,18.85,2.25,4.37.48,8.73,1.17,13.05,1.96,10.55,1.91,21.11,3.81,31.56,6.23,34.46,7.97,67.57,19.61,98.79,36.39,27.31,14.68,52.22,32.68,74.79,53.92,18.77,17.67,34.36,37.88,47.35,60.11,12.69,21.72,22.49,44.69,29.96,68.69,3.85,12.36,6.98,24.9,9.41,37.6.98,5.12,2.03,10.26,2.42,15.49.08,1.09.41,2.15.65,3.22.21.93,1.58,1.86,2.52,1.68,1.89-.36,3.76-.78,5.65-1.13,5.68-1.04,11.34-2.26,17.05-3.04,5.45-.74,10.83-1.97,16.34-2.32,6.76-1.34,13.65-1.71,20.47-2.56,7.91-.99,15.88-1.6,23.84-2.15,5.76-.4,11.54-.61,17.3-1.14,3.01-.28,6.04-.4,9.07-.48,17.34-.45,34.68-.6,52.02-.08,4.13.12,8.25.3,12.35.81.82.1,1.64.22,2.46.25,8.53.35,16.99,1.47,25.48,2.27,1.64.15,3.28.38,4.91.61,1.63.23,3.26.56,4.9.74,6.84.77,13.61,1.93,20.4,3.04,8.96,1.47,17.85,3.23,26.75,5.03,12.68,2.56,25.23,5.62,37.7,9.02,30.28,8.26,59.88,18.51,88.7,30.96,34.18,14.76,66.86,32.29,97.84,52.96,52.73,35.2,97.88,78.33,135.28,129.52,31.08,42.54,54.89,88.86,71.73,138.77,7.66,22.7,13.81,45.81,18.47,69.31,1.82,9.18,3.47,18.37,4.86,27.63,1.31,8.71,2.35,17.45,3.46,26.18,1.08,8.47,1.26,17.02,2.42,25.48.04.27.05.55.06.82,1.03,21.44,2.26,42.89,1.54,64.37-.37,11-.98,22-1.48,33-1.08,8.46-1.12,17.03-2.47,25.47-.39,6.33-1.49,12.57-2.25,18.85-.56,4.64-1.24,9.27-2.03,13.88-3.04,17.9-6.62,35.7-11.15,53.29-13.83,53.66-34.82,104.29-64.13,151.39-20.15,32.38-43.63,62.13-70.44,89.26-42.56,43.06-91.12,77.84-145.09,105.14-32.23,16.3-65.68,29.54-100.27,39.93-22.35,6.72-36.42,10.13-55.11,14.14-10.48,2.25-21.04,4.13-31.63,5.85-9.78,1.59-19.62,2.71-29.4,4.22-8.24.49-16.39,2.04-24.66,2.22-.82.02-1.65.07-2.47.17-12.05,1.44-24.17,1.43-36.28,1.62-13.76.22-27.52-.06-41.28-.43-4.95-.13-9.9-.37-14.83-.93-1.91-.21-3.84-.34-5.76-.43-5.5-.27-10.99-.56-16.45-1.4-1.63-.25-3.29-.25-4.93-.42-2.74-.28-5.47-.6-8.2-.92-1.09-.13-2.17-.36-3.27-.47-12.61-1.23-25.1-3.31-37.53-5.6-53.56-9.9-104.97-26.51-154.15-49.94-21.38-10.18-42.21-21.37-62.29-33.93-40.14-25.11-76.22-55.11-108.41-89.81-28.38-30.59-53.04-63.94-73.84-100.12-9.2-16-17.6-32.39-24.7-49.43-.52-1.24-.87-2.61-1.88-3.62-.43-.43-.93-.57-1.5-.29-.21.1-.45.29-.53.5-.98,2.59-1.16,5.37-1.68,8.05-1.47,7.56-2.68,15.17-4.02,22.75-1.34,7.58-2.73,15.16-4.08,22.74-1.36,7.58-2.71,15.16-4.05,22.75-1.34,7.58-2.65,15.17-4,22.76-1.44,8.12-2.91,16.24-4.36,24.37-1.3,7.31-2.58,14.63-3.87,21.94-1.49,8.4-2.97,16.79-4.49,25.18-1.37,7.58-2.78,15.15-4.14,22.73-1.31,7.31-2.58,14.63-3.88,21.94-1.45,8.12-2.91,16.24-4.36,24.37-1.3,7.31-2.6,14.62-3.89,21.94-1.28,7.32-2.52,14.64-3.83,21.95-.34,1.89-.89,3.74-1.34,5.62-.14.57-1.16,1.5-1.72,1.56-.82.1-1.64.26-2.46.27-3.03.04-6.06.05-9.08.05-244.7,0-489.4,0-734.11,0-3.03,0-6.06-.02-9.08-.06-.54,0-1.09-.14-1.63-.2-.99-.1-2.04-1.18-2.15-2.18-.36-3.29-.33-6.58-.03-9.88.12-1.31,1.33-2.42,2.77-2.52.27-.02.55-.06.82-.06,10.74-.1,21.43-1.23,32.16-1.67,7.44-.31,18.09-2.49,25.01-4.97,3.89-1.39,7.65-3.1,11.18-5.26,4.27-2.61,7.97-5.86,11.11-9.76,4.18-5.19,7.35-10.96,9.67-17.19,1.92-5.17,3.23-10.5,4.19-15.93,1.16-6.53,1.64-13.1,1.77-19.71.08-4.13.15-8.26.15-12.38.06-72.12.04-144.23.16-216.35.35-206.72.75-413.43,1.15-620.15.03-14.59.21-29.18.26-43.76.01-4.4-.03-8.81-.31-13.2-.7-11.04-2.8-21.81-6.55-32.24-1.96-5.46-4.5-10.63-7.66-15.5-5.08-7.84-11.89-13.67-20.37-17.52-5.79-2.62-11.81-4.44-18.15-5.27-5.47-.71-10.93-1.16-16.45-1.23-6.88-.08-13.76-.4-20.63-.66-2.75-.11-5.5-.28-8.2-.87-.8-.18-2.03-1.49-2.09-2.31-.28-3.85-.33-7.69.02-11.54.12-1.32,1.36-2.45,2.77-2.51.55-.02,1.1-.06,1.65-.06,1.38-.01,2.75-.02,4.13-.02,74.32,0,148.64,0,222.96,0,2.2,0,4.4.11,6.6.19,1.01.04,2.05,1.1,2.13,2.14.34,4.12.49,8.23-.15,12.33-.07.45-.58.94-1.01,1.21-.44.28-1.02.41-1.55.45-1.37.1-2.75.15-4.12.16-3.85.02-7.71.06-11.56,0-6.89-.1-13.74.28-20.6,1-7.71.81-15.17,2.56-22.43,5.25-3.62,1.34-7.08,3.02-10.38,5.02-8.2,4.98-14.5,11.74-18.98,20.21-3.25,6.13-5.33,12.68-6.59,19.47-1.15,6.23-1.84,12.51-2.05,18.86-.52,15.68-1.01,31.36-1.03,47.05-.12,101.02-.32,202.04-.44,303.06-.05,42.94,0,85.88,0,128.82h-.1ZM2077.03,962.78c.37-16.26-1.12-32.45-1.97-48.67-.07-1.37-.27-2.74-.41-4.11-.3-3.01-.61-6.02-.91-9.03-.19-1.92-.24-3.86-.57-5.75-1.03-5.97-1.2-12.05-2.47-17.99-.9-8.21-2.42-16.33-3.99-24.43-2.61-13.5-5.67-26.9-9.22-40.2-9.03-33.87-21.21-66.54-36.81-97.92-26.12-52.55-60.51-98.95-103.54-138.89-18.78-17.43-38.61-33.6-59.5-48.46-44.46-31.62-92.43-56.39-144.09-74-18.24-6.21-36.74-11.47-55.5-15.83-9.37-2.18-18.78-4.22-28.31-5.65-4.8-1.26-9.8-1.41-14.63-2.58-5.76-.47-11.41-1.81-17.19-2.21-1.92-.14-3.82-.47-5.74-.68-2.73-.3-5.47-.59-8.21-.85-1.92-.18-3.86-.2-5.76-.46-6.83-.95-13.71-1.16-20.58-1.42-3.03-.11-6.05-.25-9.07-.42-14.3-.85-28.61-.85-42.91.03-2.75.17-5.5.29-8.25.4-6.6.26-13.2.48-19.76,1.39-2.18.3-4.39.34-6.58.51-1.65.13-3.31.16-4.93.44-6.51,1.12-13.16,1.21-19.64,2.56-5.51.33-10.86,1.8-16.35,2.27-8.65,1.64-17.32,3.1-25.93,4.94-.53.11-1.04.35-1.56.52-.84.27-1.92,1.68-1.86,2.5.34,4.67.57,9.34,1.07,13.99.5,4.66.79,9.32.94,14,.44,14.59.42,29.17-.06,43.76-.09,2.75-.11,5.52-.44,8.24-1.01,8.47-.99,17.04-2.46,25.47-.79,9.33-2.36,18.56-4.01,27.76-2.47,13.81-5.6,27.48-9.46,40.98-7.05,24.68-16.29,48.48-28.28,71.19-19.25,36.45-44.45,68.12-76.05,94.66-18.19,15.28-37.84,28.39-58.77,39.59-23.11,12.36-47.28,22.17-72.31,29.9-14.79,4.57-31.64,8.81-47.16,11.93-7.55,1.52-15.15,2.74-22.73,4.12-4.6.83-9.24,1.46-13.89,1.93-7.66.77-15.28,2.03-23,2.26-1.1.03-2.19.25-3.28.34-3.57.27-7.13.64-10.7.77-11.28.39-22.56.64-33.85.31-1.1-.03-2.2-.06-3.3-.07-.55,0-1.1.06-1.64.08-1.35.05-2.61,1.15-2.82,2.53-1.47,9.52-2.91,19.04-3.76,28.64-.1,1.1-.16,2.2-.35,3.28-.75,4.35-.99,8.75-1.26,13.14-.14,2.2-.25,4.4-.52,6.58-.57,4.65-.8,9.32-.94,14-.21,6.88-.46,13.76-.55,20.64-.34,25.06.4,50.07,3.39,75,1.01,8.47,2.15,16.91,3.39,25.35,1.53,10.35,3.49,20.62,5.7,30.83,4.67,21.52,10.56,42.72,17.93,63.48,33.53,94.5,89.56,172.97,168.27,235.09,56.65,44.71,120.1,76.2,189.43,95.95,21.98,6.26,34.3,8.77,53.77,12.65,4.04.81,8.12,1.44,12.2,2.08,6.25.98,12.51,1.89,18.76,2.81,1.36.2,2.73.36,4.1.48,7.4.64,14.73,1.96,22.17,2.19.55.02,1.1.11,1.64.19,4.36.67,8.76.84,13.16,1.03,5.22.23,10.45.5,15.67.79,12.93.72,25.86.77,38.79.21,7.15-.31,14.3-.68,21.43-1.22,6.86-.52,13.7-1.27,20.54-1.94.82-.08,1.63-.29,2.44-.4,1.63-.23,3.27-.53,4.91-.64,5.78-.4,11.44-1.63,17.16-2.39,4.63-.62,9.19-1.7,13.8-2.46,11.67-1.94,23.21-4.53,34.68-7.38,27.25-6.77,53.94-15.31,80-25.8,41.27-16.6,80.18-37.54,116.44-63.33,33.12-23.56,63.11-50.58,89.7-81.33,36.15-41.8,64.35-88.45,85.05-139.66,9.5-23.49,17.28-47.54,23.41-72.14,4.01-16.06,7.67-34.18,9.95-48.48.65-4.08,1.23-8.16,1.83-12.24,1.19-8.17,2.38-16.34,2.95-24.58.08-1.1.13-2.2.3-3.29.88-5.73,1.09-11.5,1.38-17.28.14-2.75.36-5.49.51-8.24.23-4.12.53-8.24.64-12.37.17-6.33.2-12.66.29-18.99ZM959.21,142.82v.14c-7.98.1-15.97.15-23.95.3-5.78.11-11.56.31-17.33.53-7.7.3-15.4.66-23.1,1.03-3.85.18-7.69.4-11.54.66-4.39.29-8.78.71-13.18.93-8.25.42-16.43,1.68-24.67,2.17-.55.03-1.09.17-1.63.24-2.73.32-5.47.62-8.2.94-1.91.22-3.83.42-5.74.68-5.99.83-11.99,1.67-17.98,2.52-5.17.74-10.35,1.44-15.51,2.25-8.42,1.33-16.82,2.77-25.24,4.13-4.07.66-8.16,1.24-12.24,1.82-6.81.97-13.62,1.91-20.43,2.85-1.64.22-3.28.39-4.92.56-1.91.21-3.85.3-5.74.62-3.54.6-7.1.9-10.67,1.14-1.92.13-3.85.27-5.75.56-3.82.57-7.66.77-11.5,1.08-8.78.71-17.53,1.64-26.33,2.1-.27.01-.55.06-.82.08-11.5,1.15-23.05,1.67-34.57,2.63-1.64.14-3.3.13-4.95.22-1.65.09-3.3.19-4.94.32-.82.07-1.64.21-2.45.32-1.82.25-3.12,1.5-3.17,3.18-.1,3.02-.18,6.05-.18,9.08,0,187.17,0,374.34,0,561.51,0,2.48.05,4.95.05,7.43,0,2.41.75,4.29,3.3,5.06,1.05.32,2.04.82,3.07,1.2,11.08,4.12,22.15,8.29,33.26,12.33,27.91,10.14,56.03,19.67,84.46,28.28,19.75,5.98,39.73,11.05,59.93,15.24,9.69,2.01,19.4,3.95,29.14,5.71,12.45,2.25,24.89,4.5,37.39,6.44,4.08.63,8.18,1.11,12.23,1.9,5.41,1.06,10.94,1.26,16.31,2.5,6.05.36,11.96,1.84,18.02,2.23,2.74.17,5.44.87,8.17,1.14,3.56.35,7.11.71,10.66,1.24,2.71.4,5.48.44,8.22.59,1.41.08,2.49-.84,2.91-2.38.29-1.06.59-2.12.81-3.2.9-4.31,1.68-8.64,2.68-12.93,4.3-18.5,9.54-36.73,15.69-54.7,10.99-32.09,24.55-63.04,41.24-92.59,11.8-20.89,25.02-40.82,40.02-59.55,24.34-30.41,51.55-57.99,81.57-82.79,47.89-39.56,100.69-70.88,158.27-94.13,18.88-7.62,38.08-14.34,57.84-19.32,1.6-.4,3.15-.99,4.71-1.5.61-.2,1.33-1.22,1.36-1.9.03-.82.1-1.65.07-2.47-.26-5.52-1.45-10.91-2.46-16.31-1.92-10.32-4.81-21.61-7.76-31.21-6.96-22.71-16.19-44.44-28.2-64.95-10.9-18.61-23.7-35.79-38.87-51.14-18.26-18.48-38.41-34.62-60.54-48.27-25.91-16-53.64-27.86-82.82-36.44-23.99-7.05-49.88-12.19-75.12-15.11-1.37-.16-2.72-.42-4.09-.58-2.18-.27-4.37-.52-6.56-.74-9.86-.98-19.72-1.88-29.63-2.3-.27-.01-.55-.04-.82-.07-5.75-.61-11.53-.84-17.31-.9-13.49-.15-26.97-.26-40.46-.38ZM1358.92,484.1c-.15-6.78-.3-15.04-.52-23.29-.07-2.75-.15-5.51-.72-8.21-.11-.53-.36-1.03-.54-1.55-.24-.65-1.31-1.23-2-1.06-1.33.32-2.7.53-4,.97-5.73,1.94-11.44,3.9-17.14,5.94-23.07,8.24-45.57,17.8-67.4,28.93-34.46,17.58-66.31,39.07-95.95,63.9-17.52,14.68-34.21,30.26-50.35,46.43-9.73,9.75-18.9,19.99-27.54,30.71-17.67,21.91-32.98,45.38-46.35,70.13-16.25,30.09-29.48,61.46-39.98,94-4.05,12.57-7.64,25.26-10.73,38.1-.64,2.67-1.26,5.34-1.35,8.1-.02.61.28.98.85,1.27,1.02.52,2.11.59,3.2.58,7.7-.09,15.41-.25,23.11-.29,9.93-.06,19.74-1.54,29.63-2.14,1.09-.07,2.17-.34,3.26-.49,1.64-.22,3.27-.51,4.91-.61,5.5-.35,10.86-1.77,16.34-2.23,9.71-1.91,19.45-3.62,29.09-5.87,21.47-5.01,42.39-11.68,62.68-20.29,24.92-10.58,48.3-23.87,69.81-40.37,32.56-24.98,58.72-55.42,78.06-91.66,13.28-24.88,22.94-51.14,29.94-78.41,3.29-12.79,5.79-25.75,7.99-38.77.73-4.34,1.39-8.7,1.84-13.07.78-7.66,2.02-15.28,2.25-22.99.03-1.1.16-2.2.3-3.29.59-4.65.79-9.32.9-14,.15-6.33.25-12.65.4-20.45Z"/>
  <path class="cls-2" d="M1993.31,1570.57c-2.63-.18-7.06-.24-11.4-.85-6.27-.88-12.41-2.47-18.33-4.76-16.94-6.54-30.6-17.19-40.55-32.46-5.17-7.93-8.75-16.55-10.64-25.79-1.26-6.19-2.13-12.49-1.76-18.86,1.34-22.88,10.5-41.93,28-56.82,10.46-8.89,22.5-14.66,35.86-17.83,6.48-1.54,13.04-1.99,19.63-2.44,2.18-.15,4.4.05,6.59.19,2.2.15,4.38.42,6.57.66,22.42,2.48,43.13,14.45,56.12,31.37,7.16,9.32,12.07,19.72,14.44,31.2,1.72,8.37,2.63,16.87,1.11,25.43-1.99,21.61-15.16,47.06-43.27,61.56-8.38,4.33-17.32,7.05-26.6,8.55-4.62.74-9.32.81-15.77.86ZM2058.91,1490.55c.2-6.89-1.1-14.41-3.63-21.58-5.55-15.69-15.58-27.68-30.36-35.45-8.89-4.67-18.43-6.99-28.52-7.15-8.64-.14-16.92,1.39-24.98,4.47-16.96,6.46-35.89,23.06-39.69,51.72-1.13,8.52-.45,17.02,1.82,25.35,5.48,20.14,20.21,35.85,39.97,42.91,8.43,3.01,17.1,4.03,25.95,3.62,4.38-.2,8.73-.67,13.03-1.84,16.81-4.54,29.45-14.41,38.06-29.44,5.72-9.98,8.5-20.81,8.36-32.61Z"/>
  <path class="cls-2" d="M1217.93,1837.02c0,25.05,0,50.09,0,75.14,0,2.75-.12,5.49-.21,8.24-.03.99-1.1,1.95-2.21,2.08-.82.1-1.64.27-2.46.27-5.5.02-11.01.02-16.51,0-.82,0-1.64-.18-2.45-.28-1.02-.12-2.12-1.19-2.16-2.15-.07-1.65-.18-3.3-.18-4.94-.02-5.78,0-11.56-.03-17.34,0-1.09-.14-2.19-.23-3.28-.05-.62-.42-.99-1.08-1.02-.25-.01-.52.07-.75.18-1.03.5-1.61,1.47-2.29,2.32-2.94,3.66-6.17,7.04-9.73,10.09-9.99,8.58-21.37,14.39-34.19,17.49-5.39,1.3-10.85,1.79-16.31,2.37-1.36.15-2.76.12-4.12.01-20.8-1.68-38.9-9.33-53.64-24.34-7.83-7.98-13.48-17.38-17.47-27.76-2.77-7.2-4.7-14.64-5.72-22.33-.8-6.02-1.44-12.03-1.23-18.1.46-13.33,3.07-26.21,8.24-38.52,4.43-10.56,10.97-19.69,19.32-27.5,7.77-7.27,16.93-12.22,27-15.45,7.1-2.28,14.36-3.71,21.86-3.89,5.51-.13,11.03-.14,16.49.53,10.45,1.29,20.47,4.09,29.71,9.35,7.79,4.43,14.24,10.29,19.37,17.63.93,1.33,1.54,2.96,3.04,3.84.19.11.5.08.73.01.23-.07.59-.23.62-.39.17-1.08.37-2.17.37-3.26.04-6.33,0-12.66.04-18.99,0-1.37.21-2.73.3-4.1.04-.54,1.07-1.62,1.6-1.71.54-.09,1.08-.29,1.62-.29,6.33-.02,12.66-.02,18.99,0,.54,0,1.08.19,1.62.28.61.1,1.63,1.05,1.69,1.61.09.82.3,1.62.32,2.44.05,2.48.04,4.95.04,7.43,0,24.77,0,49.54,0,74.32ZM1133.14,1900.96c4.12-.21,9.58-.36,14.98-1.72,6.49-1.63,12.45-4.24,17.85-8.15,5.62-4.06,10.39-8.96,14.32-14.67,6.87-9.98,10.45-21.11,11.36-33.1.31-4.09.1-8.23.02-12.35-.03-1.64-.27-3.29-.54-4.91-1.11-6.81-3.2-13.34-6.03-19.63-3.43-7.62-8.28-14.27-14.42-19.88-8.8-8.04-19.25-12.55-31.14-13.55-8.25-.7-16.45-.38-24.54,1.7-8.71,2.24-16.31,6.39-22.74,12.68-2.76,2.7-5.22,5.65-7.35,8.86-8.46,12.75-12.33,26.82-12.06,42.08.05,3.04.65,6,1.1,8.99,1.89,12.51,6.93,23.64,14.76,33.53,3.61,4.55,7.82,8.47,12.66,11.7,7.71,5.15,16.12,8.17,25.45,8.4,1.65.04,3.3,0,6.31,0Z"/>
  <path class="cls-2" d="M2002.35,1837.69c0,25.04,0,50.09,0,75.13,0,2.75-.1,5.5-.17,8.25-.03,1.08-1.02,2.2-1.95,2.3-.27.03-.54.17-.8.18-6.88.14-13.75.26-20.63-.06-1.43-.07-2.44-1.17-2.51-2.7-.04-.82-.1-1.65-.11-2.47-.02-3.3.02-6.61-.03-9.91-.06-4.12.25-8.25-.23-12.36-.07-.6-.4-1.07-1.04-1.07-.49,0-1.04.19-1.45.47-.44.3-.77.78-1.13,1.2-1.07,1.26-2.1,2.55-3.21,3.78-11,12.22-24.57,20.17-40.42,24.31-8.88,2.32-17.92,2.85-27.03,1.95-4.94-.49-9.75-1.74-14.46-3.26-13.35-4.3-24.98-11.38-34.56-21.7-7.4-7.98-12.8-17.19-16.6-27.34-2.61-6.97-4.45-14.14-5.43-21.55-.69-5.19-1.18-10.37-1.21-15.62-.08-12.81,2.37-25.17,6.68-37.17,4.16-11.59,10.87-21.59,19.63-30.19,7.39-7.25,16.14-12.36,25.85-15.8,5.44-1.92,11.01-3.46,16.81-4,3.01-.28,5.98-.97,9.02-1.01,3.86-.05,7.7-.07,11.53.53,1.63.26,3.27.43,4.91.61,7.72.86,15.08,2.99,22.19,6.07,10.62,4.61,19.23,11.66,25.76,21.23.62.91,1.18,1.86,1.88,2.7.31.37.86.57,1.33.76.61.25,1.1-.56,1.11-1.84.03-3.03.05-6.05.06-9.08.02-4.68.02-9.36.07-14.03,0-.81.12-1.66.39-2.43.16-.47.68-.83,1.1-1.17.19-.15.53-.15.8-.17,7.15-.34,14.29-.34,21.44,0,.27.01.59.03.8.18.43.32,1.03.66,1.16,1.11.63,2.14.44,4.36.44,6.56,0,25.87,0,51.74,0,77.61ZM1976.23,1838.03c-.01-3.3-.08-6.59-.6-9.86-.96-5.99-2.57-11.79-4.78-17.44-3.15-8.05-7.88-15.06-13.87-21.25-4.84-5-10.54-8.75-16.95-11.45-6.92-2.91-14.18-4.23-21.64-4.55-4.98-.22-9.87.54-14.75,1.35-8.27,1.36-15.79,4.52-22.47,9.64-4.18,3.2-7.75,6.99-10.81,11.26-8.4,11.74-12.53,24.93-13.14,39.27-.2,4.68.37,9.3,1.14,13.93,1.99,11.91,6.73,22.57,14.03,32.13,3.69,4.84,8.06,9.01,13.12,12.4,8.42,5.65,17.69,8.68,27.87,8.78,5.23.05,10.39-.4,15.57-1.28,9.76-1.65,18.26-5.74,25.65-12.26,7.57-6.67,13.18-14.69,16.82-24.08,3.31-8.55,4.95-17.41,4.81-26.59Z"/>
  <path class="cls-2" d="M640.83,1847.11c-19.81,0-39.61,0-59.42.01-2.19,0-4.39-.17-6.57.3-.94.2-2.05,1.25-2.12,2.22-.04.55-.19,1.09-.17,1.63.5,10.41,3.4,20.04,9.66,28.47,8,10.79,18.64,17.66,31.64,21.03,6.22,1.61,12.5,1.74,18.83,1.63,6.42-.11,12.55-1.6,18.42-4.03,9.72-4.03,17.27-10.62,22.45-19.82.94-1.67,1.92-3.35,2.64-5.13.82-2.05,2.2-3.07,4.35-3.12,7.15-.16,14.3-.32,21.45-.44.8-.01,1.61.25,2.41.41.64.12,1.31,1.25,1.16,1.94-1.74,8.2-5.3,15.58-10.15,22.36-3.88,5.41-8.56,10.03-13.86,14.04-7.76,5.87-16.39,10.03-25.6,13.05-7.89,2.59-16.03,3.83-24.27,4.5-1.37.11-2.75.14-4.12.08-13.88-.7-27.23-3.58-39.79-9.67-12.72-6.17-22.75-15.29-30.01-27.43-5.13-8.57-8.72-17.76-11.14-27.41-2.15-8.56-3.26-17.3-3.39-26.12-.19-13.1,2.41-25.68,7.67-37.7,3.33-7.6,7.54-14.66,12.75-21.13,10.57-13.14,24.1-21.46,40.58-25.03,3.5-.76,7-1.41,10.58-1.65,3.29-.21,6.57-.6,9.87-.8,7.18-.43,14.33.2,21.37,1.38,9.82,1.64,19.18,4.82,27.85,9.83,5.75,3.33,10.99,7.32,15.36,12.36,2.34,2.7,4.64,5.45,6.76,8.32,6.48,8.77,10.65,18.56,12.66,29.27.25,1.35.43,2.72.52,4.09.19,2.74.38,5.49.41,8.24.06,6.33.04,12.65,0,18.98,0,1.09-.25,2.17-.37,3.26-.05.5-1.16,1.72-1.59,1.76-1.09.1-2.19.28-3.28.28-5.23.03-10.45.03-15.68.03-15.96,0-31.91,0-47.87,0ZM627.62,1824.92c14.31,0,28.63,0,42.94,0,2.2,0,4.4,0,6.61-.03.82-.01,1.64-.13,2.47-.19,1.02-.08,1.99-1.12,2.15-2.12.42-2.76.06-5.49-.15-8.23-.72-9.38-4.34-17.55-10.44-24.65-3.44-4-7.49-7.29-12.05-9.93-9.99-5.77-20.71-8.7-32.3-8.47-9.27.19-17.94,2.51-26.11,6.78-11.21,5.86-19.06,14.72-23.45,26.61-.48,1.29-.92,2.59-1.38,3.89-1.48,4.17-2.55,8.42-2.84,12.85-.15,2.31.25,3.34,3.36,3.43,2.2.07,4.4.06,6.61.06,14.86,0,29.73,0,44.59,0Z"/>
  <path class="cls-2" d="M1434.54,1836.94c-.33-7.37.57-14.75,1.94-22.04,2.97-15.8,9.96-29.54,21.3-41.08,10.48-10.65,22.91-17.79,37.25-21.8,10.42-2.91,21-4.05,31.8-3.53,8.85.42,17.41,2.13,25.82,4.88,18.32,5.98,40.11,21.43,49.78,50.29,1.92,5.73,3.3,11.61,3.88,17.67.47,4.93,1.11,9.84.89,14.8-.46,9.9-1.38,19.71-4.15,29.3-6.52,22.61-20.26,39.27-41.01,50.25-8.33,4.4-17.19,7.29-26.41,9.04-4.31.82-8.72,1.06-13.1,1.51-1.09.11-2.2.07-3.3.01-13.58-.71-26.67-3.51-38.97-9.48-16.41-7.97-28.68-20.09-36.51-36.63-2.48-5.23-4.5-10.62-5.96-16.22-2.31-8.82-3.66-17.76-3.27-26.99ZM1462.26,1835.81c-.2,6.77.15,13.05,1.73,19.24,2.54,9.98,6.73,19.14,13.02,27.32,3.22,4.19,7.1,7.62,11.64,10.33,8.42,5.01,17.45,7.96,27.32,8.04,3.02.02,6.04.02,9.07-.04,6.67-.13,13.06-1.69,19.22-4.14,10.86-4.3,19.12-11.72,25.2-21.6,4.68-7.59,7.39-15.91,8.74-24.68.42-2.71.69-5.45.96-8.18,1.01-10.24-.02-20.32-2.85-30.17-2.07-7.2-5.37-13.84-10.4-19.47-10.79-12.04-24.26-18.63-40.47-19.33-4.38-.19-8.79-.02-13.18.1-4.44.12-8.67,1.31-12.83,2.75-7.68,2.66-14.11,7.28-19.96,12.8-4.03,3.81-7.26,8.24-9.79,13.16-2.66,5.16-4.46,10.63-5.59,16.31-1.18,5.94-1.95,11.93-1.81,17.57Z"/>
  <path class="cls-2" d="M255.83,1837.02c0-25.04,0-50.08.01-75.13,0-2.47.15-4.94.26-7.41.05-1.07,1.07-2.21,2.01-2.28,7.68-.57,15.37-.77,23.07-.86.88-.01,2.23,1.15,2.24,2.04.02,1.37.22,2.74.23,4.11.04,3.85,0,7.71.04,11.56,0,1.09.13,2.19.27,3.27.07.53.51.92,1.11,1.04.24.05.62-.03.78-.2.94-.98,1.9-1.96,2.74-3.02,6.72-8.42,15.27-14.14,25.46-17.53,8.14-2.71,16.47-4.37,25.04-4.72,1.64-.07,3.3.03,4.95.13,1.65.1,3.29.36,4.93.44,5.28.26,10.29,1.68,15.23,3.46,5.19,1.87,10.13,4.26,14.91,7.02.95.55,1.88,1.15,2.8,1.75,12.13,7.82,19.93,18.73,23.4,32.73,1.79,7.23,3.04,14.54,3.28,21.99.13,4.12.2,8.25.2,12.38.01,28.34,0,56.69,0,85.03,0,2.47.17,4.95-.29,7.41-.1.51-1.13,1.54-1.69,1.62-.54.07-1.08.26-1.62.26-6.88.01-13.76,0-20.63-.02-.53,0-1.06-.24-1.6-.33-.55-.1-1.56-1.17-1.6-1.71-.08-.82-.22-1.64-.22-2.46-.03-2.75-.02-5.5-.01-8.26.07-26.97.14-53.94.21-80.91.01-4.4-.05-8.81-.41-13.2-.41-4.96-1.62-9.74-2.87-14.54-2.48-9.49-11.1-19.46-21.3-23.91-4.56-1.99-9.3-3.31-14.3-3.74-6.88-.58-13.75-.49-20.61.22-5.26.54-10.23,2.13-14.71,4.99-2.55,1.63-4.99,3.43-7.44,5.2-3.63,2.63-6.43,5.99-8.49,9.96-1.01,1.95-2.05,3.92-2.78,5.98-1.75,4.93-3.16,9.94-3.81,15.17-.61,4.92-.94,9.85-.93,14.81.04,27.52.03,55.04,0,82.56,0,2.74.23,5.5-.37,8.22-.12.55-1.09,1.6-1.62,1.69-.27.04-.54.12-.81.17-.27.05-.54.11-.82.11-6.88,0-13.76.03-20.63-.01-.8,0-1.64-.24-2.38-.57-.45-.2-.84-.73-1.06-1.2-.22-.48-.27-1.07-.28-1.61-.04-2.75-.07-5.5-.07-8.25,0-24.49,0-48.98,0-73.48h.21Z"/>
  <path class="cls-2" d="M1642.65,1836.68c0-24.49,0-48.98,0-73.47,0-2.75.05-5.5.11-8.25.04-1.77,1.25-2.88,3.23-2.95,6.87-.24,13.75-.48,20.62-.66.8-.02,1.65.21,2.39.52.45.19.93.73,1.04,1.19.25,1.06.37,2.17.38,3.25.05,4.68.02,9.36.07,14.03,0,.81.13,1.65.38,2.42.16.48.82.76,1.31.54,1.59-.69,2.35-2.27,3.38-3.52,6.44-7.86,14.46-13.37,24.06-16.74,8.64-3.03,17.49-4.77,26.61-5.17,3.04-.13,6.04.39,9.06.56,5.55.31,10.85,1.73,16.02,3.64,5.17,1.91,10.15,4.26,14.85,7.12,2.58,1.57,5.06,3.32,7.44,5.19,7.3,5.73,12.66,12.91,15.97,21.63,2.36,6.21,3.89,12.6,4.71,19.18,1.06,8.48,1.44,16.98,1.42,25.53-.08,26.97-.03,53.93-.05,80.9,0,2.75-.14,5.49-.23,8.24-.03.89-1.25,2.01-2.22,2.12-.54.06-1.09.2-1.63.2-6.6,0-13.21.01-19.81-.03-.81,0-1.66-.17-2.4-.47-.44-.18-.91-.74-1.03-1.22-.61-2.43-.37-4.93-.36-7.4.04-26.14.11-52.28.17-78.42,0-4.13.02-8.26-.03-12.38-.09-6.92-1.26-13.68-3.06-20.34-2.98-11.02-9.88-18.86-19.79-24.16-4.89-2.62-10.17-4.11-15.72-4.63-7.15-.66-14.3-.55-21.43.21-4.97.53-9.65,2.1-13.96,4.72-3.3,2-6.38,4.32-9.4,6.71-2.39,1.9-4.25,4.29-5.87,6.87-2.06,3.29-3.62,6.82-4.75,10.5-2.27,7.39-3.72,14.92-3.7,22.71.05,20.36.01,40.72.01,61.09,0,10.18,0,20.36-.01,30.54,0,1.37.06,2.77-.4,4.08-.16.46-.69.82-1.11,1.16-.2.16-.51.2-.78.23-3.88.39-18.58.43-23.07.08-1.36-.11-2.38-1.26-2.45-2.79-.04-.82-.1-1.65-.11-2.47-.02-1.93-.01-3.85-.01-5.78,0-24.76,0-49.53,0-74.29h.14Z"/>
  <path class="cls-2" d="M858.96,1837.77c.06-25.03.12-50.05.2-75.08,0-2.74-.14-5.5.28-8.23.16-1.02,1.15-2.17,2.06-2.28.27-.03.54-.12.81-.13,7.14-.27,14.29-.52,21.43-.78.27,0,.55.06.82.07.87.04,2.17,1.26,2.22,2.15.09,1.92.2,3.84.24,5.76.08,4.12.09,8.25.2,12.37.01.47.41.97.73,1.38.13.17.61.28.76.17.65-.46,1.34-.93,1.83-1.55,1.89-2.37,3.89-4.63,6.06-6.75,4.37-4.27,9.33-7.65,14.99-10.01,7.91-3.3,16.07-5.47,24.6-6.5,6.92-.83,13.74-.21,20.55.65,2.7.34,5.39,1.13,7.98,2.01,7.32,2.46,14.28,5.71,20.74,9.99.23.15.44.33.67.48,10.95,7.34,18.27,17.34,21.78,30.05,1.91,6.9,3.29,13.92,3.56,21.1.19,4.95.37,9.9.38,14.84.03,28.6.02,57.2,0,85.8,0,2.19-.16,4.39-.27,6.58-.05.96-1.17,2.02-2.16,2.11-.27.02-.54.15-.81.15-7.15,0-14.3-.01-21.44-.06-.52,0-1.11-.21-1.54-.5-.43-.28-.85-.74-1.02-1.21-.57-1.58-.44-3.25-.43-4.89.06-14.03.13-28.05.2-42.08.07-14.3.11-28.6.24-42.9.05-5.79-.3-11.54-.86-17.29-.48-4.96-1.71-9.73-3.26-14.44-1.13-3.44-2.89-6.53-5.08-9.38-5.71-7.45-13-12.52-22.17-14.85-2.68-.68-5.34-1.23-8.1-1.46-6.6-.57-13.19-.4-19.77.18-5.57.49-10.77,2.2-15.47,5.24-2.77,1.79-5.41,3.77-8.05,5.76-2.66,2.01-4.76,4.54-6.51,7.38-1.89,3.06-3.35,6.3-4.5,9.7-2.39,7.09-3.71,14.36-3.81,21.84-.03,2.47-.02,4.95-.02,7.43,0,26.95,0,53.9-.01,80.85,0,2.74.18,5.5-.25,8.23-.15.97-1.19,2.18-2.07,2.28-.82.09-1.63.25-2.45.25-6.32.02-12.65.02-18.98,0-.81,0-1.62-.23-2.43-.33-.55-.07-1.63-1.1-1.72-1.62-.09-.54-.28-1.08-.3-1.62-.06-1.92-.09-3.85-.08-5.77.04-16.78.09-33.55.13-50.33.02-8.25,0-16.5,0-24.75h.08Z"/>
  <path class="cls-2" d="M456.2,1827.68c0-15.12,0-30.25,0-45.37,0-1.92.07-3.85-.41-5.74-.12-.49-1.21-1.54-1.74-1.6-.81-.09-1.62-.3-2.43-.31-3.85-.05-7.7-.02-11.55-.07-1.1-.01-2.19-.16-3.28-.25-.44-.03-1.61-1.14-1.72-1.64-.06-.26-.28-.5-.3-.76-.45-6.04-.43-12.08-.02-18.12.09-1.31,1.38-2.58,2.68-2.7.82-.07,1.64-.19,2.46-.21,1.92-.03,3.85,0,5.77-.01,2.2,0,4.4-.03,6.6-.05.27,0,.55-.07.82-.09,1.39-.09,2.73-1.25,2.82-2.52.12-1.64.26-3.29.27-4.93.03-8.8.02-17.6.04-26.4,0-1.92.06-3.85.14-5.77.02-.54.25-1.06.34-1.6.09-.51,1.21-1.63,1.66-1.68.55-.06,1.09-.19,1.64-.2,6.87-.01,13.75-.01,20.62,0,.54,0,1.08.16,1.63.21.58.05,1.7,1.01,1.75,1.54.13,1.36.34,2.73.35,4.09.03,9.62.01,19.25.03,28.87,0,1.92.11,3.84.19,5.76.06,1.32,1.28,2.47,2.71,2.54,1.65.08,3.29.16,4.94.16,9.35.02,18.7,0,28.05.01,1.65,0,3.3.03,4.95.08.54.02,1.08.17,1.62.25.99.15,2.06,1.25,2.08,2.23.08,4.4.16,8.79.17,13.19,0,1.92-.16,3.83-.26,5.75-.05.95-1.2,1.99-2.24,2.03-2.19.08-4.39.19-6.59.2-9.07.02-18.15,0-27.22.02-1.92,0-3.84.11-5.76.2-1.33.06-2.42,1.27-2.5,2.74-.05.82-.11,1.65-.12,2.47-.02,1.65-.02,3.3-.02,4.95,0,28.32-.01,56.64,0,84.96,0,4.12.16,8.25.29,12.37.08,2.79.88,5.43,1.93,7.98.96,2.33,2.5,4.26,4.66,5.63,2.59,1.64,5.37,2.79,8.45,3.02,2.19.16,4.4.16,6.59.17,6.32.03,12.65.02,18.97.07.81,0,1.66.14,2.4.44.44.18.74.76,1.04,1.2.14.21.17.53.18.8.29,6.04.31,12.08-.05,18.12-.06.98-1.12,2.11-2.07,2.24-.27.04-.53.15-.8.18-.55.06-1.1.12-1.64.13-10.17.11-20.34.11-30.52-.28-6.16-.24-11.89-1.94-17.43-4.51-3.04-1.41-5.63-3.41-7.9-5.85-3.82-4.1-6.4-8.92-8.15-14.19-.61-1.82-1.17-3.69-1.46-5.58-.77-5.16-1.82-10.29-2.04-15.53-.3-7.14-.65-14.28-.63-21.44.01-9.07,0-18.15,0-27.22h0Z"/>
  <path class="cls-2" d="M1269.2,1827.06c0-14.85,0-29.69,0-44.54,0-1.92.1-3.85-.31-5.75-.12-.54-1.06-1.62-1.61-1.71-.81-.13-1.62-.37-2.43-.38-4.4-.06-8.8-.05-13.2-.12-.81-.01-1.65-.13-2.4-.4-.45-.16-.8-.7-1.13-1.12-.16-.2-.22-.51-.25-.78-.36-3.71-.38-15.16-.05-18.93.08-.9,1.25-2.08,2.19-2.15,1.37-.1,2.74-.24,4.11-.26,3.57-.04,7.15,0,10.72-.05.8-.01,1.61-.28,2.41-.44.48-.09,1.6-1.26,1.63-1.7.11-1.64.28-3.29.29-4.93.03-9.35,0-18.7.04-28.05,0-1.92.14-3.84.24-5.75.05-1.02,1.13-2.11,2.11-2.16,7.69-.36,15.38-.31,23.07-.03,1.06.04,2.19,1.04,2.28,1.97.08.82.24,1.63.25,2.45.04,2.2.03,4.4.03,6.6,0,8.52,0,17.05.02,25.57,0,1.37.15,2.74.24,4.11.07.92,1.23,1.98,2.23,2.09.82.08,1.63.22,2.45.24,2.2.04,4.4.04,6.6.04,9.07,0,18.15,0,27.22.03,1.36,0,2.73.23,4.09.37.49.05,1.51,1.23,1.56,1.76.02.27.17.53.18.8.18,6.04.27,12.09-.04,18.13-.07,1.41-1.22,2.46-2.72,2.53-.82.04-1.65.11-2.47.11-1.92.02-3.85.02-5.77.02-8.8,0-17.6-.01-26.4.02-1.64,0-3.28.18-4.92.29-.91.06-1.98,1.26-2.05,2.24-.06.82-.18,1.64-.2,2.46-.04,1.92-.03,3.85-.03,5.77,0,28.05,0,56.09,0,84.13,0,3.3.07,6.6.12,9.9.05,3.33.75,6.56,1.78,9.7.87,2.66,2.43,4.92,4.77,6.55,2.53,1.76,5.32,2.89,8.38,3.2,2.18.22,4.39.21,6.59.22,6.05.03,12.1,0,18.15.04,1.09,0,2.21.09,3.27.33.46.1.91.63,1.17,1.08.26.46.37,1.05.37,1.59,0,5.77-.03,11.54-.09,17.31-.01,1.42-1.18,2.56-2.59,2.67-.27.02-.54.07-.82.09-.27.03-.55.06-.82.06-10.17.12-20.34.11-30.51-.27-6.15-.23-11.9-1.88-17.44-4.45-3.56-1.65-6.53-4.03-9.05-7.01-3.6-4.27-6.13-9.13-7.57-14.5-.85-3.18-1.5-6.41-1.99-9.68-1.31-8.73-1.67-17.51-1.7-26.31-.03-11,0-22,0-32.99h-.02Z"/>
  <path class="cls-2" d="M2076.67,1806.34c0,35.2,0,70.39,0,105.59,0,2.74.18,5.5-.27,8.23-.09.52-1.1,1.57-1.65,1.66-.54.08-1.07.3-1.61.3-7.15.01-14.29,0-21.44-.03-.53,0-1.13-.14-1.57-.42-.44-.27-.82-.75-1.04-1.23-.22-.48-.28-1.07-.29-1.61-.06-2.2-.09-4.4-.09-6.6,0-70.39,0-140.79,0-211.18,0-2.74-.22-5.5.31-8.22.11-.56,1.06-1.66,1.58-1.71,1.09-.1,2.18-.28,3.28-.29,5.77-.03,11.55-.02,17.32-.01.82,0,1.65.05,2.47.09,1.75.08,2.86,1.31,2.92,3.25.04,1.1.07,2.2.07,3.3.01,2.2,0,4.4,0,6.6,0,31.07,0,62.14,0,93.22v9.07Z"/>
  <path class="cls-2" d="M775.03,1867.44c0,15.67.01,31.35-.01,47.02,0,1.92-.18,3.84-.28,5.76-.02.45-1.22,1.55-1.72,1.61-.27.03-.52.22-.79.23-7.42.29-14.84.28-22.26,0-.52-.02-1.1-.19-1.53-.48-.43-.28-.87-.75-1.01-1.22-.65-2.14-.44-4.36-.44-6.55,0-18.97.02-37.95.04-56.92.03-31.62.05-63.24.08-94.86,0-2.47.02-4.95.09-7.42.07-2.49,1.08-3.61,3.39-3.75.27-.02.55-.03.82-.03,6.6,0,13.2,0,19.8.04.8,0,1.64.21,2.38.51.45.18.94.66,1.1,1.11.28.76.41,1.6.42,2.41.05,4.95.02,9.9.06,14.85.01,1.37.16,2.73.23,4.1.04.69.38,1.05,1.07,1.01.24-.01.53-.06.7-.2.43-.34.86-.7,1.19-1.13.83-1.09,1.59-2.24,2.4-3.35,7.62-10.49,17.9-16.9,30.48-19.6,4.82-1.03,9.66-2.21,14.67-1.96,1.79.09,3.01,1.16,3.15,3.04.02.27.08.55.08.82.03,7.15.06,14.3.09,21.44,0,.27-.05.55-.07.82-.09,1.29-1.43,2.74-2.63,2.75-1.92.02-3.84.03-5.76-.01-4.4-.1-8.79.05-13.18.52-3.33.35-6.45,1.32-9.45,2.74-10.84,5.13-17.79,13.56-21.07,25.04-1.21,4.24-2.02,8.56-2.01,13,0,2.2-.02,4.4-.02,6.6,0,14.02,0,28.05,0,42.07h-.01Z"/>
  <path class="cls-2" d="M208.53,1813.4c0,32.7,0,65.41,0,98.11,0,2.74-.12,5.49-.22,8.23-.03.98-1.14,2.07-2.12,2.19-.54.07-1.08.22-1.62.23-6.87,0-13.74,0-20.61-.03-.54,0-1.08-.19-1.62-.27-.48-.08-1.53-1.19-1.6-1.72-.11-.81-.32-1.62-.34-2.44-.06-2.47-.07-4.95-.07-7.42,0-64.58,0-129.16,0-193.75,0-3.02.11-6.04.23-9.06.02-.52.27-1.09.57-1.52.3-.42.78-.73,1.23-1.03.21-.14.52-.18.78-.2,7.41-.38,14.83-.25,22.24-.07.53.01,1.1.2,1.55.47.44.27.86.7,1.1,1.16.25.47.37,1.05.38,1.59.07,2.75.11,5.49.11,8.24,0,32.43,0,64.86,0,97.29Z"/>
  <path class="cls-2" d="M1399.12,1836.8c0,24.75,0,49.51,0,74.26,0,2.75-.09,5.5-.17,8.24-.04,1.39-1.26,2.73-2.5,2.84-.27.02-.55.09-.82.09-7.15,0-14.3,0-21.44,0-.27,0-.56-.01-.82-.1-.52-.18-1.1-.32-1.49-.66-.38-.35-.67-.9-.8-1.41-.2-.79-.28-1.63-.3-2.45-.05-2.2-.05-4.4-.05-6.6,0-49.78,0-99.56,0-149.35,0-1.93.02-3.85.02-5.78,0-4.36,1.34-4.99,4.72-5.09,1.1-.03,2.2-.03,3.3-.03,4.13,0,8.25,0,12.38,0,1.1,0,2.2,0,3.3.03.55.01,1.1.07,1.65.1,1.3.08,2.75,1.36,2.8,2.58.11,2.47.22,4.94.22,7.41.02,21.45,0,42.91,0,64.36v11.55Z"/>
  <path class="cls-2" d="M1404.75,1704.92c-.08,6.46-3.22,12.23-9.81,15.79-4.17,2.26-8.65,3.13-13.47,1.91-6.6-1.66-11.19-5.49-13.68-11.82-.4-1.01-.73-2.08-.86-3.15-.19-1.62-.32-3.28-.23-4.91.41-7.51,4.15-12.88,10.82-16.18,2.2-1.09,4.64-1.63,7.11-1.88.54-.05,1.1-.07,1.64-.02,7.97.79,13.95,4.4,17.18,12.01.99,2.33,1.22,4.75,1.3,8.23Z"/>
  <path class="cls-2" d="M1963.36,1491.95c0-10.44,0-20.88,0-31.33,0-1.92.06-3.85.13-5.77.04-1.24,1.33-2.72,2.49-2.93.27-.05.53-.16.8-.19,10.38-1.16,20.75-2.24,31.23-1.98,4.98.12,9.87.69,14.69,1.78,4.06.92,7.78,2.68,11.07,5.27,2.87,2.26,5.04,5.09,6.21,8.55.97,2.88,1.32,5.88,1.11,8.94-.32,4.64-2.34,8.4-5.75,11.47-1.44,1.29-3,2.4-4.7,3.31-1.45.78-2.89,1.56-4.33,2.34-.61.33-.56,1.68.09,2.12.9.63,1.8,1.23,2.71,1.84,2.8,1.89,4.81,4.46,6.35,7.44,1.28,2.46,2.26,5.05,2.85,7.72,1.42,6.44,3.12,12.8,5.13,19.07.19.58-.6,1.77-1.18,1.85-.27.04-.53.18-.79.18-4.67.02-9.34.05-14.01.04-1.86,0-3-1.1-3.8-2.68-1.12-2.22-1.77-4.61-2.46-6.98-.69-2.37-1.23-4.79-1.86-7.18-.49-1.86-.95-3.73-1.56-5.55-1.63-4.89-5.17-7.69-10.13-8.6-4.34-.8-8.74-.9-13.13-.32-.27.04-.6.05-.79.21-.41.35-.93.72-1.09,1.19-.45,1.31-.44,2.7-.45,4.07,0,6.32-.01,12.64-.03,18.96,0,1.1-.02,2.2-.09,3.29-.03.54-.2,1.08-.29,1.62-.1.57-1.09,1.62-1.63,1.69-4.92.61-9.84.56-14.77.03-.58-.06-1.59-1.05-1.68-1.62-.08-.54-.25-1.08-.27-1.62-.05-2.2-.08-4.4-.08-6.59,0-9.89,0-19.79,0-29.68ZM1982.48,1475.38s.05,0,.08,0c0,2.2,0,4.4,0,6.6,0,.82.06,1.65.11,2.47.07,1.36,1.29,2.7,2.56,2.78,1.64.1,3.29.15,4.94.23,3.89.18,7.67-.5,11.43-1.41,1.9-.46,3.61-1.34,5.19-2.46,2.62-1.85,4.17-4.34,4.25-7.62.01-.55.01-1.1-.01-1.65-.15-3.23-1.6-5.79-4.11-7.75-1.3-1.02-2.77-1.75-4.36-2.27-5.37-1.74-10.82-1.75-16.32-.93-.54.08-1.05.32-1.57.48-.8.25-1.9,1.62-1.92,2.46-.09,3.02-.17,6.05-.25,9.07Z"/>
</svg>